Coordinates
version=1
nRows=5
nColumns=63
inDegrees=yes

Units are S.I. units (second, meters, Newtons, ...)
If the header above contains a line with 'inDegrees', this indicates whether rotational values are in degrees (yes) or radians (no).

endheader
time	pelvis_tilt	pelvis_list	pelvis_rotation	pelvis_tx	pelvis_ty	pelvis_tz	hip_flexion_r	hip_adduction_r	hip_rotation_r	knee_angle_r	knee_angle_r_beta	ankle_angle_r	subtalar_angle_r	mtp_angle_r	hip_flexion_l	hip_adduction_l	hip_rotation_l	knee_angle_l	knee_angle_l_beta	ankle_angle_l	subtalar_angle_l	mtp_angle_l	L5_S1_Flex_Ext	L5_S1_Lat_Bending	L5_S1_axial_rotation	L4_L5_Flex_Ext	L4_L5_Lat_Bending	L4_L5_axial_rotation	L3_L4_Flex_Ext	L3_L4_Lat_Bending	L3_L4_axial_rotation	L2_L3_Flex_Ext	L2_L3_Lat_Bending	L2_L3_axial_rotation	L1_L2_Flex_Ext	L1_L2_Lat_Bending	L1_L2_axial_rotation	L1_T12_Flex_Ext	L1_T12_Lat_Bending	L1_T12_axial_rotation	Abs_r3	Abs_r2	Abs_r1	Abs_t1	Abs_t2	neck_flexion	neck_bending	neck_rotation	arm_flex_r	arm_add_r	arm_rot_r	elbow_flex_r	pro_sup_r	wrist_flex_r	wrist_dev_r	arm_flex_l	arm_add_l	arm_rot_l	elbow_flex_l	pro_sup_l	wrist_flex_l	wrist_dev_l
      0.00000000	      1.00727606	     -3.57569374	     95.06423889	      0.16243892	      1.13322162	      0.42096317	      2.62680740	      0.08810204	     -7.25689360	     10.09519912	      0.17619446	     33.60621262	     14.94021540	      0.00000000	      5.43042594	     -0.20976309	      0.78600496	     15.30929098	      0.26719753	     33.03217791	      3.84248481	      0.00000000	      0.18924662	      0.17831439	     -0.31387369	      0.35144990	      0.23715814	     -0.33349079	      0.31091327	      0.43355361	     -0.33349079	      0.21628996	      0.43355361	     -0.27463948	      0.17573441	      0.36361871	     -0.25502237	      0.10813552	      0.27620899	     -0.23540527	      1.35176969	      2.01712806	     -1.74567129	      0.00000000	      0.00000000	     19.79650177	     -8.33103023	      4.07801014	     51.90272054	     -1.14752892	     39.85960206	     47.24175397	     88.71213207	      6.51106921	      5.09313503	     47.81249469	    -16.76851453	     57.63822806	     60.90709528	     28.92201008	     -7.61079141	    -13.42627784
      0.01923077	      0.90281599	     -3.41554053	     95.23640169	      0.16216302	      1.13407768	      0.41978103	      2.23989192	     -0.03384825	     -7.29841910	      9.91471339	      0.17304439	     33.49183468	     14.33100333	      0.00000000	      5.06473593	     -0.03223751	      1.33373142	     14.80508706	      0.25839752	     32.74766552	      4.15696739	      0.00000000	      0.18561794	      0.17079222	     -0.38051172	      0.34471108	      0.22715366	     -0.40429370	      0.30495172	      0.41526421	     -0.40429370	      0.21214275	      0.41526421	     -0.33294776	      0.17236482	      0.34827950	     -0.30916577	      0.10606209	      0.26455715	     -0.28538379	      1.32585041	      1.93203578	     -2.11629204	      0.00000000	      0.00000000	     19.31617650	     -8.31689122	      4.35307428	     51.68318552	     -1.25019431	     40.30085459	     48.00515130	     88.46547789	      7.41081917	      4.97818965	     47.80690597	    -17.46682050	     58.29464451	     61.59320915	     29.18095568	     -7.62862254	    -13.15028960
      0.03846154	      0.82750163	     -3.27047542	     95.86554468	      0.16172835	      1.13486623	      0.41879551	      1.66048535	      0.26480504	     -3.82724181	      9.21169676	      0.16077444	     32.42466512	      8.57095997	      0.00000000	      4.74482808	      0.23963991	      3.38225032	     14.32728257	      0.25005825	     32.13274750	      2.79555839	      0.00000000	      0.18301962	      0.15759530	     -0.52874719	      0.33988573	      0.20960175	     -0.56179389	      0.30068293	      0.38317722	     -0.56179389	      0.20917312	      0.38317722	     -0.46265379	      0.16995202	      0.32136834	     -0.42960709	      0.10457741	      0.24411513	     -0.39656039	      1.30729082	      1.78274960	     -2.94073326	      0.00000000	      0.00000000	     19.05615823	     -7.87771485	      4.92885784	     51.84677872	     -0.96016376	     40.17233000	     47.74782971	     88.38661863	     10.70401993	      5.24041554	     47.71123102	    -18.21124973	     58.73746530	     62.66107931	     30.39638198	     -9.48126730	    -12.29791276
      0.05769231	      0.81564681	     -3.16845138	     96.05169499	      0.16175882	      1.13548073	      0.41810190	      1.45493667	      0.27247742	     -3.76501012	      9.10743126	      0.15895466	     32.32170890	      8.17840335	      0.00000000	      4.55210431	      0.25158374	      3.64375579	     14.12142047	      0.24646528	     31.90415547	      3.01746772	      0.00000000	      0.17878546	      0.15086921	     -0.54869510	      0.33202248	      0.20065605	     -0.58298855	      0.29372664	      0.36682340	     -0.58298855	      0.20433391	      0.36682340	     -0.48010821	      0.16602018	      0.30765250	     -0.44581477	      0.10215801	      0.23369641	     -0.41152133	      1.27704669	      1.70666271	     -3.05167755	      0.00000000	      0.00000000	     18.73088837	     -7.82108351	      4.83853820	     51.91288935	     -1.33875263	     40.73487299	     48.24176794	     88.39262498	     10.96614424	      5.04913295	     47.72450442	    -18.61499783	     59.35435122	     63.24699261	     30.82632860	     -9.28320277	    -12.21139133
      0.07692308	      0.80161270	     -3.05051756	     96.73854942	      0.16153134	      1.13605549	      0.41782829	      1.05381646	      0.52731112	     -1.61430395	      8.61029086	      0.15027793	     31.53762757	      4.30709970	      0.00000000	      4.45151152	      0.25113050	      4.27580148	     14.04297529	      0.24509616	     31.70174241	      3.33606836	      0.00000000	      0.17374131	      0.12686249	     -0.63908193	      0.32265499	      0.16872711	     -0.67902456	      0.28543960	      0.30845346	     -0.67902456	      0.19856895	      0.30845346	     -0.55919669	      0.16133618	      0.25869799	     -0.51925407	      0.09927579	      0.19651000	     -0.47931145	      1.24101682	      1.43509386	     -3.55438199	      0.00000000	      0.00000000	     18.49099715	     -7.66415286	      3.83153720	     52.52425449	     -1.88069285	     42.43670004	     47.98328208	     88.30922759	     10.33083322	      3.20798340	     48.05073436	    -18.84858824	     60.18118765	     63.18268722	     33.58709129	     -8.64346264	    -11.99615191
